# xmcd CD database file
#
# Track frame offsets:
#	150
#	39066
#	64872
#	95938
#	137610
#	155107
#	183462
#	222939
#
# Disc length: 3394 seconds
#
# Revision: 0
# Processed by: cddbd v1.5.2PL0 Copyright (c) Steve Scherf et al.
# Submitted via: CDex 1.70beta2
#
DISCID=720d4008
DTITLE=Kendrick Scott - Reverence
DYEAR=2009
DGENRE=Jazz
TTITLE0=Ana Maria
TTITLE1=Gingerbread Boy
TTITLE2=You Know I Care
TTITLE3=Metamorphosis
TTITLE4=No You, No Me
TTITLE5=Speak Like A Child
TTITLE6=Short Story
TTITLE7=Loneley Woman
EXTD=YEAR: 2009
EXTT0=
EXTT1=
EXTT2=
EXTT3=
EXTT4=
EXTT5=
EXTT6=
EXTT7=
PLAYORDER=
